<?xml version="1.0" encoding="UTF-8"?>
<svg width="10px" height="17px" viewBox="0 0 10 17" version="1.1" xmlns="http://www.w3.org/2000/svg" xmlns:xlink="http://www.w3.org/1999/xlink">
    <!-- Generator: Sketch 46.2 (44496) - http://www.bohemiancoding.com/sketch -->
    <title>Back Icon</title>
    <desc>Created with Sketch.</desc>
    <defs></defs>
    <g id="Page-1" stroke="none" stroke-width="1" fill="none" fill-rule="evenodd">
        <g id="Filters-#1" transform="translate(-20.000000, -34.000000)" fill="#FFFFFF">
            <g id="Top-Bar">
                <g id="Back-Icon" transform="translate(20.000000, 34.000000)">
                    <g transform="translate(8.500000, 8.500000) rotate(180.000000) translate(-8.500000, -8.500000) " id="Combined-Shape">
                        <path d="M12.4852814,12.4852814 L3.48775467,12.4852814 C2.94104233,12.4852814 2.48528137,12.9329966 2.48528137,13.4852814 C2.48528137,14.0414166 2.93410396,14.4852814 3.48775467,14.4852814 L13.4828081,14.4852814 C13.4832204,14.4852814 13.4836327,14.4852811 13.4840449,14.4852806 C13.4844568,14.4852811 13.484869,14.4852814 13.4852814,14.4852814 C13.7629352,14.4852814 14.0126049,14.3734094 14.1930259,14.1924731 C14.3716845,14.0106697 14.4852814,13.7610073 14.4852814,13.4852814 C14.4852814,13.484869 14.4852811,13.4844568 14.4852806,13.4840445 C14.4852811,13.4836327 14.4852814,13.4832204 14.4852814,13.4828081 L14.4852814,3.48775467 C14.4852814,2.94104233 14.0375661,2.48528137 13.4852814,2.48528137 C12.9291462,2.48528137 12.4852814,2.93410396 12.4852814,3.48775467 L12.4852814,12.4852814 Z" transform="translate(8.485281, 8.485281) rotate(-45.000000) translate(-8.485281, -8.485281) "></path>
                    </g>
                </g>
            </g>
        </g>
    </g>
</svg>