<?xml version="1.0" encoding="UTF-8"?>
<svg width="20px" height="17px" viewBox="0 0 20 17" version="1.1" xmlns="http://www.w3.org/2000/svg" xmlns:xlink="http://www.w3.org/1999/xlink">
    <!-- Generator: Sketch 46.2 (44496) - http://www.bohemiancoding.com/sketch -->
    <title>Shopping Cart</title>
    <desc>Created with Sketch.</desc>
    <defs></defs>
    <g id="Page-1" stroke="none" stroke-width="1" fill="none" fill-rule="evenodd">
        <g id="Products-#3" transform="translate(-335.000000, -34.000000)" fill="#FFFFFF">
            <g id="Top-Bar">
                <g id="Shopping-Cart" transform="translate(335.000000, 34.000000)">
                    <g id="Shape">
                        <path d="M15.3548739,15.3780672 C15.3548739,15.8021008 15.5052521,16.1638655 15.804916,16.4635294 C16.1045798,16.7634874 16.4666387,16.9135714 16.8908403,16.9135714 C17.3144118,16.9135714 17.6764706,16.7634874 17.9761345,16.4635294 C18.2760924,16.1638655 18.4261765,15.8021008 18.4261765,15.3780672 C18.4261765,14.9540336 18.2762605,14.5922689 17.9761345,14.2923109 C17.6764706,13.9926471 17.3144118,13.842563 16.8908403,13.842563 C16.4666387,13.842563 16.1045798,13.9926471 15.804916,14.2923109 C15.5052521,14.5922689 15.3548739,14.9540336 15.3548739,15.3780672 Z" fill-rule="nonzero"></path>
                        <path d="M19.7335294,1.78613445 C19.5815126,1.63415966 19.4016807,1.55815126 19.1936975,1.55815126 L4.78647059,1.55815126 C4.77836134,1.50222689 4.76037815,1.40033613 4.73239496,1.25239496 C4.70441176,1.10436975 4.68247899,0.986470588 4.66647059,0.898403361 C4.65037815,0.810714286 4.62054622,0.704663866 4.57647059,0.580714286 C4.53247899,0.456680672 4.4805042,0.358613445 4.42054622,0.286806723 C4.36067227,0.214621849 4.28071429,0.152815126 4.18071429,0.100672269 C4.08079832,0.0488655462 3.96676471,0.0228151261 3.83886555,0.0228151261 L0.76789916,0.0228151261 C0.559831933,0.0228151261 0.379915966,0.0989495798 0.227983193,0.250714286 C0.0760084034,0.402647059 0,0.582689076 0,0.790588235 C0,0.998487395 0.0760084034,1.17844538 0.227983193,1.33037815 C0.380042017,1.48235294 0.56,1.55827731 0.76789916,1.55827731 L3.21483193,1.55827731 L5.33802521,11.4312185 C5.32214286,11.4631513 5.24016807,11.614958 5.09214286,11.8870168 C4.94420168,12.1590756 4.8262605,12.3968908 4.73836134,12.6007983 C4.65042017,12.804958 4.60642857,12.9628151 4.60642857,13.0747059 C4.60642857,13.282605 4.68243697,13.462605 4.83432773,13.6147899 C4.98647059,13.7663025 5.16634454,13.842563 5.37428571,13.842563 L6.14201681,13.842563 L16.8905462,13.842563 L17.6578151,13.842563 C17.8657143,13.842563 18.0457143,13.7663445 18.197605,13.6147899 C18.3497059,13.4626471 18.4256303,13.2826471 18.4256303,13.0747059 C18.4256303,12.8667647 18.3497059,12.6867647 18.197605,12.534916 C18.0457563,12.3830672 17.8657563,12.3068487 17.6578151,12.3068487 L6.62168067,12.3068487 C6.81369748,11.9228992 6.90966387,11.6672689 6.90966387,11.5392857 C6.90966387,11.4590756 6.89966387,11.3710504 6.87962185,11.2752941 C6.85957983,11.1795378 6.83563025,11.0734034 6.80764706,10.9572689 C6.77962185,10.8416387 6.76172269,10.7556303 6.7537395,10.6995798 L19.2779832,9.23609244 C19.4776891,9.21193277 19.6417647,9.1262605 19.7697059,8.97810924 C19.8976891,8.83029412 19.9615126,8.66037815 19.9615126,8.46831933 L19.9615126,2.32617647 C19.9614286,2.11827731 19.8856303,1.93831933 19.7335294,1.78613445 Z" fill-rule="nonzero"></path>
                        <path d="M4.60638655,15.3780672 C4.60638655,15.8021008 4.7562605,16.1638655 5.05621849,16.4635294 C5.3562605,16.7634874 5.71798319,16.9135714 6.14197479,16.9135714 C6.56571429,16.9135714 6.92764706,16.7634874 7.22747899,16.4635294 C7.52743697,16.1638655 7.67747899,15.8021008 7.67747899,15.3780672 C7.67747899,14.9540336 7.52756303,14.5922689 7.22747899,14.2923109 C6.92760504,13.9926471 6.56571429,13.842563 6.14197479,13.842563 C5.71802521,13.842563 5.35609244,13.9926471 5.05621849,14.2923109 C4.75642857,14.5922689 4.60638655,14.9540336 4.60638655,15.3780672 Z" fill-rule="nonzero"></path>
                    </g>
                </g>
            </g>
        </g>
    </g>
</svg>