<?xml version="1.0" encoding="UTF-8"?>
<svg width="13px" height="10px" viewBox="0 0 13 10" version="1.1" xmlns="http://www.w3.org/2000/svg" xmlns:xlink="http://www.w3.org/1999/xlink">
    <!-- Generator: Sketch 46.2 (44496) - http://www.bohemiancoding.com/sketch -->
    <title>Wifi</title>
    <desc>Created with Sketch.</desc>
    <defs></defs>
    <g id="Symbols" stroke="none" stroke-width="1" fill="none" fill-rule="evenodd">
        <g id="Bars-/-Status-Bar-White" transform="translate(-44.000000, -5.000000)" fill="#FFFFFF">
            <g id="Status-Bar-White">
                <path d="M50.4957516,7.02087671 C52.4355242,7.02087671 54.2033612,7.73545205 55.5588529,8.90717808 L56.5,7.86810959 C54.894602,6.47446575 52.7978883,5.5 50.4957516,5.5 C48.1971136,5.5 46.1033987,6.47150685 44.5,7.86071233 L45.4391478,8.90126027 C46.7936399,7.7329863 48.5584781,7.02087671 50.4957516,7.02087671 L50.4957516,7.02087671 Z M50.4957516,10.0202192 C51.6583156,10.0202192 52.7204173,10.4423562 53.5396101,11.1376986 L54.5352368,10.0379726 C53.4516431,9.10789041 52.0421717,8.50032877 50.4957516,8.50032877 C48.9523304,8.50032877 47.5438586,9.10641096 46.4612645,10.0335342 L47.4553917,11.1347397 C48.2740847,10.4408767 49.334687,10.0202192 50.4957516,10.0202192 L50.4957516,10.0202192 Z M52.5434837,12.2374247 C51.9891916,11.7773151 51.2754592,11.4587397 50.4952518,11.4587397 C49.7165438,11.4587397 49.0038111,11.7768219 48.4495189,12.2349589 L50.4952518,14.5 L52.5434837,12.2374247 L52.5434837,12.2374247 Z" id="Wifi"></path>
            </g>
        </g>
    </g>
</svg>